HIERARCHY
ROOT joint_Root
{
	OFFSET 0.0 0.0 0.0
	CHANNELS 6 Xposition Yposition Zposition Zrotation Xrotation Yrotation 
	JOINT Hips
	{
		OFFSET -0.726466 93.3139 -2.00062
		CHANNELS 6 Xposition Yposition Zposition Zrotation Xrotation Yrotation 
		JOINT Spine
		{
			OFFSET 15.7357 0.0 0.0
			CHANNELS 6 Xposition Yposition Zposition Zrotation Xrotation Yrotation 
			JOINT Chest
			{
				OFFSET 8.98455 -0.406207 0.0
				CHANNELS 6 Xposition Yposition Zposition Zrotation Xrotation Yrotation 
				JOINT Neck
				{
					OFFSET 16.3773 0.0 0.0
					CHANNELS 6 Xposition Yposition Zposition Zrotation Xrotation Yrotation 
					JOINT Head
					{
						OFFSET 6.45672 0.0 0.0
						CHANNELS 6 Xposition Yposition Zposition Zrotation Xrotation Yrotation 
						End Site
						{
							OFFSET 0.0 0.0 0.0
						}
					}
				}
				JOINT Shoulder_L
				{
					OFFSET 12.9942 -0.242716 4.98039
					CHANNELS 6 Xposition Yposition Zposition Zrotation Xrotation Yrotation 
					JOINT UpperArm_L
					{
						OFFSET 5.34809 0.0 0.0
						CHANNELS 6 Xposition Yposition Zposition Zrotation Xrotation Yrotation 
						JOINT LowerArm_L
						{
							OFFSET 24.3286 1.87007e-05 0.0
							CHANNELS 6 Xposition Yposition Zposition Zrotation Xrotation Yrotation 
							JOINT Hand_L
							{
								OFFSET 22.2916 0.0 0.0
								CHANNELS 6 Xposition Yposition Zposition Zrotation Xrotation Yrotation 
								End Site
								{
									OFFSET 0.0 0.0 0.0
								}
							}
						}
					}
				}
				JOINT Shoulder_R
				{
					OFFSET 12.9945 -0.242716 -4.98039
					CHANNELS 6 Xposition Yposition Zposition Zrotation Xrotation Yrotation 
					JOINT UpperArm_R
					{
						OFFSET -5.34813 0.0 0.0
						CHANNELS 6 Xposition Yposition Zposition Zrotation Xrotation Yrotation 
						JOINT LowerArm_R
						{
							OFFSET -24.3289 0.000322201 0.0
							CHANNELS 6 Xposition Yposition Zposition Zrotation Xrotation Yrotation 
							JOINT Hand_R
							{
								OFFSET -22.2915 -0.000108084 0.0
								CHANNELS 6 Xposition Yposition Zposition Zrotation Xrotation Yrotation 
								End Site
								{
									OFFSET 0.0 0.0 0.0
								}
							}
						}
					}
				}
			}
		}
		JOINT UpperLeg_L
		{
			OFFSET -2.19248 -6.46944 0.0
			CHANNELS 6 Xposition Yposition Zposition Zrotation Xrotation Yrotation 
			JOINT LowerLeg_L
			{
				OFFSET 39.0811 0.0 -1.23785e-05
				CHANNELS 6 Xposition Yposition Zposition Zrotation Xrotation Yrotation 
				JOINT Foot_L
				{
					OFFSET 40.9854 0.0 -1.26872e-05
					CHANNELS 6 Xposition Yposition Zposition Zrotation Xrotation Yrotation 
					JOINT Toes_L
					{
						OFFSET 11.7543 0.0 0.0
						CHANNELS 6 Xposition Yposition Zposition Zrotation Xrotation Yrotation 
						End Site
						{
							OFFSET 0.0 0.0 0.0
						}
					}
				}
			}
		}
		JOINT UpperLeg_R
		{
			OFFSET -2.19251 6.46944 0.0
			CHANNELS 6 Xposition Yposition Zposition Zrotation Xrotation Yrotation 
			JOINT LowerLeg_R
			{
				OFFSET -39.0811 -0.00228153 -0.0401928
				CHANNELS 6 Xposition Yposition Zposition Zrotation Xrotation Yrotation 
				JOINT Foot_R
				{
					OFFSET -40.9854 0.0 0.0
					CHANNELS 6 Xposition Yposition Zposition Zrotation Xrotation Yrotation 
					JOINT Toes_R
					{
						OFFSET -11.7543 0.0 0.0
						CHANNELS 6 Xposition Yposition Zposition Zrotation Xrotation Yrotation 
						End Site
						{
							OFFSET 0.0 0.0 0.0
						}
					}
				}
			}
		}
	}
}
MOTION
Frames:	9
Frame Time:	0.0333333
0.000000 0.000000 0.000000 0.000000 0.000000 -0.000000 -0.099212 92.299200 -0.404655 88.063000 -0.148390 4.484830 15.735700 0.000005 -0.000001 83.534100 85.494600 -82.997000 8.984550 -0.406207 -0.000000 1.192870 -1.045090 1.084230 16.377300 -0.000001 -0.000001 3.652370 -2.763030 1.005570 6.456720 -0.000001 -0.000000 6.288600 -3.184610 -0.331113 12.994200 -0.242716 4.980390 -89.773500 -0.701613 -72.106200 5.348090 -0.000007 -0.000001 -70.109900 39.692900 -12.533900 24.328600 0.000019 0.000005 1.363550 3.332670 -22.266200 22.291600 -0.000001 0.000005 5.318310 5.477100 -5.637930 12.994500 -0.242716 -4.980390 88.245400 5.689770 -72.830000 -5.348130 -0.000001 -0.000004 -66.339500 36.674500 -16.406500 -24.328900 0.000322 -0.000009 3.031320 9.695640 -17.460400 -22.291500 -0.000108 -0.000004 5.521200 5.319460 -0.470533 -2.192480 -6.469440 -0.000000 -175.652000 -7.084890 -2.076450 39.081100 -0.000007 -0.000012 -0.103258 0.244986 22.854700 40.985400 -0.000006 -0.000013 0.445540 4.851980 -66.566300 11.754300 -0.000000 0.000003 -0.000043 -0.000500 -16.597000 -2.192510 6.469440 -0.000001 179.326000 14.749700 -179.323000 -39.081100 -0.002282 -0.040193 -0.036915 0.114823 19.312000 -40.985400 0.000008 0.000006 3.369570 7.835490 -65.941300 -11.754300 -0.000006 -0.000006 -0.008728 -0.093874 -20.396500
0.000000 0.000000 0.000000 0.000000 0.000000 -0.000000 -0.100895 92.303300 -0.410708 88.127300 -0.140840 4.541790 15.735700 0.000005 -0.000001 83.560400 85.483200 -83.102700 8.984550 -0.406207 -0.000000 1.215030 -1.038860 0.925666 16.377300 -0.000001 -0.000001 3.661340 -2.802340 0.971648 6.456720 -0.000001 -0.000000 6.375810 -3.181090 -0.115326 12.994200 -0.242716 4.980390 -89.720600 -0.866483 -72.125300 5.348090 -0.000007 -0.000001 -70.257800 39.431000 -12.494700 24.328600 0.000019 0.000005 1.340610 3.286070 -22.207900 22.291600 -0.000001 0.000005 5.318960 5.476370 -5.609970 12.994500 -0.242716 -4.980390 88.168900 5.927060 -72.798000 -5.348130 -0.000001 -0.000004 -65.211500 34.951200 -17.326800 -24.328900 0.000322 -0.000009 3.878490 11.119500 -19.369000 -22.291500 -0.000108 -0.000004 -0.293726 5.292700 0.294334 -2.192480 -6.469440 -0.000000 -175.702000 -7.131190 -1.978730 39.081100 -0.000007 -0.000012 -0.102961 0.245253 22.773500 40.985400 -0.000006 -0.000013 0.442835 4.868780 -66.523700 11.754300 -0.000000 0.000003 -0.000040 -0.000465 -16.595700 -2.192510 6.469440 -0.000001 179.273000 14.617900 -179.284000 -39.081100 -0.002282 -0.040193 -0.036935 0.114742 19.333400 -40.985400 0.000008 0.000006 3.324980 7.720630 -65.939100 -11.754300 -0.000006 -0.000006 -0.008907 -0.095277 -20.453800
0.000000 0.000000 0.000000 0.000000 0.000000 -0.000000 -0.100526 92.292200 -0.436851 88.117000 -0.143684 4.550630 15.735700 0.000005 -0.000001 82.592800 85.505600 -82.153400 8.984550 -0.406207 -0.000000 1.152680 -1.183670 0.889951 16.377300 -0.000001 -0.000001 3.746450 -2.729930 0.927772 6.456720 -0.000001 -0.000000 6.539240 -3.074500 -0.166938 12.994200 -0.242716 4.980390 -89.690000 -0.960959 -72.117900 5.348090 -0.000007 -0.000001 -70.531700 39.203000 -12.224300 24.328600 0.000019 0.000005 1.335110 3.289960 -22.101900 22.291600 -0.000001 0.000005 5.336560 5.476340 -5.609050 12.994500 -0.242716 -4.980390 88.058500 6.128480 -72.384200 -5.348130 -0.000001 -0.000004 -63.677100 30.685400 -19.038600 -24.328900 0.000322 -0.000009 4.791110 11.273700 -23.217400 -22.291500 -0.000108 -0.000004 -4.636160 5.269440 0.914977 -2.192480 -6.469440 -0.000000 -175.700000 -7.066900 -2.043230 39.081100 -0.000007 -0.000012 -0.103385 0.245016 22.877500 40.985400 -0.000006 -0.000013 0.440435 4.833230 -66.556200 11.754300 -0.000000 0.000003 -0.000045 -0.000519 -16.597700 -2.192510 6.469440 -0.000001 179.283000 14.545700 -179.335000 -39.081100 -0.002282 -0.040193 -0.040556 0.124569 19.404300 -40.985400 0.000008 0.000006 3.164630 7.661180 -65.923500 -11.754300 -0.000006 -0.000006 -0.008886 -0.095117 -20.447300
0.000000 0.000000 0.000000 0.000000 0.000000 -0.000000 -0.068265 92.293800 -0.465671 88.131100 -0.208167 4.624690 15.735700 0.000005 -0.000001 81.779500 85.522900 -81.384500 8.984550 -0.406207 -0.000000 1.101190 -1.302740 0.801884 16.377300 -0.000001 -0.000001 3.993910 -2.718000 0.962992 6.456720 -0.000001 -0.000000 6.654170 -2.849310 -0.267010 12.994200 -0.242716 4.980390 -89.670800 -1.022390 -72.152700 5.348090 -0.000007 -0.000001 -70.653900 39.144100 -12.063800 24.328600 0.000019 0.000005 1.365470 3.401640 -21.886400 22.291600 -0.000001 0.000005 5.240270 5.474220 -5.528820 12.994500 -0.242716 -4.980390 87.986800 6.155920 -71.850900 -5.348130 -0.000001 -0.000004 -62.104300 25.132000 -21.097600 -24.328900 0.000322 -0.000009 5.248360 9.091610 -30.178400 -22.291500 -0.000108 -0.000004 -2.323820 5.272210 0.862952 -2.192480 -6.469440 -0.000000 -175.721000 -7.226250 -1.974670 39.081100 -0.000007 -0.000012 -0.101253 0.240007 22.873700 40.985400 -0.000006 -0.000013 0.486941 4.897940 -66.543700 11.754300 -0.000000 0.000003 -0.000040 -0.000463 -16.595600 -2.192510 6.469440 -0.000001 179.248000 14.432100 -179.299000 -39.081100 -0.002282 -0.040193 -0.040267 0.123541 19.434500 -40.985400 0.000008 0.000006 3.169400 7.622080 -65.915400 -11.754300 -0.000006 -0.000006 -0.008966 -0.095740 -20.472700
0.000000 0.000000 0.000000 0.000000 0.000000 -0.000000 -0.022064 92.285500 -0.478599 88.130600 -0.257708 4.756510 15.735700 0.000005 -0.000001 81.280400 85.520500 -80.931400 8.984550 -0.406207 -0.000000 1.094180 -1.377940 0.710534 16.377300 -0.000001 -0.000001 4.160970 -2.707810 1.024370 6.456720 -0.000001 -0.000000 6.919610 -2.699710 -0.377663 12.994200 -0.242716 4.980390 -89.671000 -1.020410 -72.128200 5.348090 -0.000007 -0.000001 -70.536600 39.330700 -12.159700 24.328600 0.000019 0.000005 1.358780 3.429710 -21.627100 22.291600 -0.000001 0.000005 5.272110 5.474460 -5.537810 12.994500 -0.242716 -4.980390 87.968500 6.065170 -71.442200 -5.348130 -0.000001 -0.000004 -60.332800 19.021200 -23.496900 -24.328900 0.000322 -0.000009 6.605740 7.660070 -40.984800 -22.291500 -0.000108 -0.000004 4.599880 5.321650 -0.510540 -2.192480 -6.469440 -0.000000 -175.712000 -7.316010 -1.871030 39.081100 -0.000007 -0.000012 -0.102700 0.242691 22.936700 40.985400 -0.000006 -0.000013 0.524440 4.951930 -66.576700 11.754300 -0.000000 0.000003 -0.000043 -0.000497 -16.596900 -2.192510 6.469440 -0.000001 179.172000 14.403200 -179.204000 -39.081100 -0.002282 -0.040193 -0.043079 0.131050 19.497800 -40.985400 0.000008 0.000006 3.084990 7.668220 -65.919800 -11.754300 -0.000006 -0.000006 -0.009066 -0.096523 -20.504700
0.000000 0.000000 0.000000 0.000000 0.000000 -0.000000 0.033138 92.274100 -0.498311 88.119900 -0.338262 4.916920 15.735700 0.000005 -0.000001 81.415900 85.516000 -81.084800 8.984550 -0.406207 -0.000000 1.105870 -1.357230 0.674835 16.377300 -0.000001 -0.000001 4.379990 -2.677580 1.129940 6.456720 -0.000001 -0.000000 7.041560 -2.588560 -0.699353 12.994200 -0.242716 4.980390 -89.683400 -0.979742 -72.092300 5.348090 -0.000007 -0.000001 -70.500000 39.267100 -12.217500 24.328600 0.000019 0.000005 1.397900 3.551500 -21.500700 22.291600 -0.000001 0.000005 5.293020 5.473230 -5.491430 12.994500 -0.242716 -4.980390 88.037800 5.699890 -70.967600 -5.348130 -0.000001 -0.000004 -58.685700 12.445900 -26.985000 -24.328900 0.000322 -0.000009 8.421170 6.218820 -53.813300 -22.291500 -0.000108 -0.000004 11.015100 5.349050 -1.332830 -2.192480 -6.469440 -0.000000 -175.721000 -7.368390 -1.757250 39.081100 -0.000007 -0.000012 -0.102159 0.240269 23.034600 40.985400 -0.000006 -0.000013 0.564090 4.910660 -66.626400 11.754300 -0.000000 0.000003 -0.000046 -0.000523 -16.597900 -2.192510 6.469440 -0.000001 179.099000 14.323100 -179.095000 -39.081100 -0.002282 -0.040193 -0.044293 0.133891 19.576600 -40.985400 0.000008 0.000006 2.981580 7.725320 -65.923900 -11.754300 -0.000006 -0.000006 -0.009006 -0.096052 -20.485500
0.000000 0.000000 0.000000 0.000000 0.000000 -0.000000 0.117981 92.266200 -0.506456 88.105400 -0.366807 5.030380 15.735700 0.000005 -0.000001 81.445100 85.543000 -81.127700 8.984550 -0.406207 -0.000000 1.053030 -1.344080 0.646841 16.377300 -0.000001 -0.000001 4.646700 -2.648660 1.211710 6.456720 -0.000001 -0.000000 7.198620 -2.532930 -0.931787 12.994200 -0.242716 4.980390 -89.682200 -0.973086 -71.914500 5.348090 -0.000007 -0.000001 -70.483500 39.221400 -12.261300 24.328600 0.000019 0.000005 1.398430 3.542590 -21.557300 22.291600 -0.000001 0.000005 5.408550 5.474760 -5.549120 12.994500 -0.242716 -4.980390 88.199900 5.143740 -70.682100 -5.348130 -0.000001 -0.000004 -57.790900 5.123170 -31.901000 -24.328900 0.000322 -0.000009 9.036280 4.083690 -65.881500 -22.291500 -0.000108 -0.000004 14.576500 5.364170 -1.807510 -2.192480 -6.469440 -0.000000 -175.757000 -7.373510 -1.681650 39.081100 -0.000007 -0.000012 -0.101242 0.237221 23.112100 40.985400 -0.000006 -0.000013 0.624645 4.871790 -66.671300 11.754300 -0.000000 0.000003 -0.000041 -0.000473 -16.596000 -2.192510 6.469440 -0.000001 179.040000 14.305000 -179.023000 -39.081100 -0.002282 -0.040193 -0.042415 0.128083 19.651100 -40.985400 0.000008 0.000006 3.010090 7.722680 -65.953700 -11.754300 -0.000006 -0.000006 -0.008814 -0.094548 -20.424000
0.000000 0.000000 0.000000 0.000000 0.000000 -0.000000 0.185025 92.263700 -0.516043 88.113000 -0.296772 5.104140 15.735700 0.000005 -0.000001 81.218400 85.584400 -80.931800 8.984550 -0.406207 -0.000000 0.965452 -1.364710 0.584281 16.377300 -0.000001 -0.000001 4.880350 -2.667040 1.366820 6.456720 -0.000001 -0.000000 7.483390 -2.580570 -1.095880 12.994200 -0.242716 4.980390 -89.690500 -0.945125 -71.864000 5.348090 -0.000007 -0.000001 -70.494900 39.050600 -12.114700 24.328600 0.000019 0.000005 1.386230 3.456610 -21.867800 22.291600 -0.000001 0.000005 5.550510 5.476060 -5.598240 12.994500 -0.242716 -4.980390 88.422200 4.518580 -70.728600 -5.348130 -0.000001 -0.000004 -58.001100 -2.911460 -38.442000 -24.328900 0.000322 -0.000009 9.826040 2.585930 -75.398000 -22.291500 -0.000108 -0.000004 15.749700 5.362010 -1.741360 -2.192480 -6.469440 -0.000000 -175.815000 -7.300370 -1.640300 39.081100 -0.000007 -0.000012 -0.100738 0.235702 23.141800 40.985400 -0.000006 -0.000013 0.676798 4.861360 -66.680000 11.754300 -0.000000 0.000003 -0.000045 -0.000516 -16.597600 -2.192510 6.469440 -0.000001 178.963000 14.391700 -178.968000 -39.081100 -0.002282 -0.040193 -0.040294 0.121819 19.699300 -40.985400 0.000008 0.000006 3.068560 7.738870 -65.984800 -11.754300 -0.000006 -0.000006 -0.008836 -0.094726 -20.431300
0.000000 0.000000 0.000000 0.000000 0.000000 -0.000000 0.252176 92.258100 -0.513675 88.113700 -0.192768 5.186910 15.735700 0.000005 -0.000001 81.544100 85.622200 -81.294400 8.984550 -0.406207 -0.000000 0.897680 -1.301970 0.509131 16.377300 -0.000001 -0.000001 5.050360 -2.777870 1.580520 6.456720 -0.000001 -0.000000 7.732900 -2.862100 -1.183260 12.994200 -0.242716 4.980390 -89.716200 -0.862531 -71.786800 5.348090 -0.000007 -0.000001 -70.296800 39.067700 -12.183600 24.328600 0.000019 0.000005 1.400340 3.453130 -22.089200 22.291600 -0.000001 0.000005 5.557060 5.476310 -5.607720 12.994500 -0.242716 -4.980390 88.675500 3.859200 -71.042300 -5.348130 -0.000001 -0.000004 -59.039200 -10.860600 -46.305200 -24.328900 0.000322 -0.000009 10.779200 1.672860 -81.280700 -22.291500 -0.000108 -0.000004 17.379000 5.359000 -1.650250 -2.192480 -6.469440 -0.000000 -175.843000 -7.311790 -1.592430 39.081100 -0.000007 -0.000012 -0.100451 0.234465 23.191600 40.985400 -0.000006 -0.000013 0.741651 4.939740 -66.705700 11.754300 -0.000000 0.000003 -0.000044 -0.000506 -16.597200 -2.192510 6.469440 -0.000001 178.900000 14.396600 -178.894000 -39.081100 -0.002282 -0.040193 -0.039498 0.119294 19.745400 -40.985400 0.000008 0.000006 3.086500 7.685650 -66.018800 -11.754300 -0.000006 -0.000006 -0.008702 -0.093669 -20.388100
